<?xml version="1.0" encoding="utf-8"?>
<!-- Generator: Adobe Illustrator 26.2.1, SVG Export Plug-In . SVG Version: 6.00 Build 0)  -->
<svg version="1.1" xmlns="http://www.w3.org/2000/svg" xmlns:xlink="http://www.w3.org/1999/xlink" x="0px" y="0px"
	 viewBox="0 0 367 540" style="enable-background:new 0 0 367 540;" xml:space="preserve">
<style type="text/css">
	.st0{fill:#7BC5B4;}
	.st1{fill:#0F2025;stroke:#164F4B;stroke-miterlimit:10;}
	.st2{fill:#238D7F;}
	.st3{fill:#BB6E5A;}
	.st4{fill:#8C5344;}
	.st5{fill:#164F4B;}
	.st6{fill:#1F8D7F;}
	.st7{fill:#70C2B4;}
	.st8{fill:url(#SVGID_1_);}
	.st9{fill:url(#SVGID_00000001631265327851697280000012319847778944027837_);}
	.st10{fill:#DC9F10;}
	.st11{fill:#FCC120;}
	.st12{fill:#F1F2F1;}
	.st13{fill:#0F2025;}
	.st14{fill:#E2413E;}
	.st15{fill:#AF3230;}
	.st16{fill:none;}
	.st17{fill:#E6E6E6;}
	.st18{font-family:'Avenir-Medium';}
	.st19{font-size:18.6458px;}
	.st20{fill:#CAE8E1;}
	.st21{fill:none;stroke:#164F4B;stroke-width:7;stroke-miterlimit:10;}
	.st22{fill:none;stroke:#164F4B;stroke-width:8;stroke-miterlimit:10;}
	.st23{fill:#FFFFFF;}
	.st24{font-size:15px;}
	.st25{opacity:0.85;fill:#7BC5B4;}
	.st26{fill:#95D1C3;}
	.st27{fill:none;stroke:#BB6E5A;stroke-width:5;stroke-linecap:round;stroke-miterlimit:10;}
	.st28{fill:#1A5C58;}
	.st29{fill:none;stroke:#70C2B4;stroke-width:3;stroke-linecap:round;stroke-miterlimit:10;}
	.st30{fill:none;stroke:#0F2025;stroke-width:3;stroke-linecap:round;stroke-linejoin:round;stroke-miterlimit:10;}
	.st31{fill:none;stroke:#BB6E5A;stroke-width:3;stroke-linecap:round;stroke-miterlimit:10;}
	.st32{fill:#676766;}
	.st33{fill:none;stroke:#F1F2F1;stroke-width:3;stroke-linecap:round;stroke-linejoin:round;}
	.st34{fill:none;stroke:#164F4B;stroke-width:2;stroke-linecap:round;stroke-miterlimit:10;}
	.st35{display:none;}
	.st36{display:inline;fill:#CAE8E1;}
	.st37{display:inline;fill:none;stroke:#164F4B;stroke-width:7;stroke-miterlimit:10;}
	.st38{display:inline;fill:#0F2025;}
	.st39{display:inline;fill:none;stroke:#164F4B;stroke-width:8;stroke-miterlimit:10;}
	.st40{display:inline;fill:#FFFFFF;}
	.st41{display:inline;fill:#44607F;}
	.st42{display:inline;fill:#FAF2DB;}
	.st43{fill:none;stroke:#184F4B;stroke-width:4;stroke-linecap:round;stroke-linejoin:round;}
	.st44{fill:#184F4B;}
</style>
<g id="Capa_1">
	<rect x="-0.4" y="0.6" class="st0" width="366.5" height="537.3"/>
	<g>
		<polygon class="st1" points="366.1,320.6 340.4,321.5 340.4,321.5 297.5,323 254.7,324.5 209.2,326.1 164.3,327.7 119.5,329.2 
			119.4,329.2 72.1,330.9 22.9,332.6 -0.6,333.5 -0.6,319.2 366.1,319.2 366.1,319.5 		"/>
		<g>
			<polygon class="st1" points="366.1,320.6 366.1,361.6 340.4,321.5 340.4,321.5 339.1,319.5 			"/>
			<g>
				<path class="st1" d="M144.7,539.9L165,319.3l43.6-0.3l20,220.8C228.5,539.8,147.3,539.9,144.7,539.9z"/>
				<polygon class="st1" points="122,319.3 119.4,329.2 65.1,540 -0.6,539.9 -0.6,499.9 72.1,330.9 77.2,319.2 				"/>
				<polygon class="st1" points="77.2,319.2 72.1,330.9 -0.6,499.9 -0.6,370.5 22.9,332.6 31.1,319.4 				"/>
				<polygon class="st1" points="31.1,319.4 22.9,332.6 -0.6,370.5 -0.6,319.4 				"/>
				<polygon class="st1" points="228.5,539.8 311.5,539.5 253.2,319.2 208.6,319 				"/>
				<polygon class="st1" points="366.1,475.9 366.1,539.7 311.5,539.5 254.7,324.5 253.2,319.2 295.8,319.2 297.5,323 				"/>
				<polygon class="st1" points="366.1,362 366.1,475.9 297.5,323 295.8,319.2 295.8,319.2 295.8,319.2 297.1,319.2 339.1,319.5 
					340.4,321.5 340.4,321.5 				"/>
				<polygon class="st1" points="65.7,539.9 122,319.3 165,319.3 144.7,539.9 				"/>
			</g>
		</g>
	</g>
	<polyline class="st2" points="58.3,295.4 43.2,290.3 60.2,288.4 	"/>
	<g>
		<g>
			<ellipse class="st3" cx="57.6" cy="339.5" rx="35" ry="16"/>
			<polygon class="st3" points="14.6,287.5 22.6,339.5 92.6,339.5 101.6,288.5 			"/>
			<ellipse class="st4" cx="58.1" cy="288.5" rx="43.5" ry="16"/>
			<path class="st2" d="M57.9,295.5c0,0-40.5-74.5-8.3-114.4C49.6,181.1,88.1,214.4,57.9,295.5z"/>
			<path class="st2" d="M80,197.9c-0.1-1.3,48.9,61.1-25.9,98C54,295.9,86,250.3,80,197.9z"/>
			<path class="st2" d="M44.4,295.2c-52.5-57.9-36.2-78.5-36.2-78.5s32.5,10.7,35.1,37.7C46,281.3,44.4,295.2,44.4,295.2z"/>
			<path class="st2" d="M58.3,299.4c0,0,60.8-21.6,55.6-59.9C113.9,239.5,72.4,239,58.3,299.4z"/>
			<path class="st2" d="M32.7,187.6c0.1-1-23.6,71,10.9,106.9c4.1,4.2,10.1-4,16,0C59.6,294.5,30.2,233.1,32.7,187.6z"/>
			<path class="st2" d="M12.6,275.5c0,0,25,22,46,24C58.6,299.5,28.6,277.5,12.6,275.5z"/>
		</g>
		<polyline class="st2" points="58.3,299.4 45.6,292.5 60.2,292.4 		"/>
	</g>
	<g>
		<circle class="st5" cx="186" cy="481.5" r="31.2"/>
		<path class="st3" d="M171.4,475.1c0,0-1.3-3.9,3.1-4.7c0,0,0.9-4.2,4.8-3.3c0,0,5.3-6.3,11.1-0.3c-0.1,0.5,5.3-2.9,7.3,2.7
			c0,0,5.6-1.3,4.4,5.2C200.9,481.3,171.4,475.1,171.4,475.1z"/>
		<path class="st6" d="M166.5,486.4c-0.1,0.4-0.6,0.7-1.1,0.7h-0.3c-0.6,0-1.2,0.4-1.2,1v2c0,0.9,0.8,1.6,1.8,1.6h41.9
			c1,0,1.8-0.7,1.8-1.6v-1.8c0-0.6-0.5-1-1.2-1l0,0c-0.5,0-1-0.3-1.1-0.7l-3.9-11c-0.2-0.7-0.9-1.1-1.7-1.1l-29.6,0
			c-0.8,0-1.5,0.5-1.8,1.1L166.5,486.4z"/>
	</g>
	<g>
		<circle class="st5" cx="301.7" cy="481.5" r="31.2"/>
		<path class="st3" d="M301.6,491.4c0,1.5-0.4,2.9-1.1,4.2c-0.8,1.4-1.9,2.5-3.3,3.3c-1.3,0.7-2.8,1.2-4.3,1.2
			c-1.4,0-2.7-0.3-3.8-0.9c-1.6-0.8-3-2.1-3.8-3.7c-0.6-1.2-1-2.6-1-4.1c0-1.7,0.5-3.2,1.3-4.5c0.8-1.3,2-2.4,3.4-3.1
			c1.2-0.6,2.6-1,4-1C297.7,482.7,301.6,486.6,301.6,491.4z"/>
		<path class="st3" d="M321,471.5c0,1.5-0.4,2.9-1.1,4.1c-0.8,1.4-2,2.6-3.5,3.4c-1.2,0.6-2.5,0.9-3.8,0.9c-4.7,0-8.4-3.8-8.4-8.4
			c0-1.4,0.3-2.6,0.9-3.8c0.8-1.7,2.2-3,3.9-3.9c1.1-0.5,2.3-0.8,3.6-0.8c1.4,0,2.8,0.4,3.9,1c1.5,0.8,2.7,2,3.5,3.5
			C320.7,468.8,321,470.1,321,471.5z"/>
		<path class="st3" d="M294.4,484.8c0,0,2.6-7.8,12.2-12.3s4.9,6.3,4.9,6.3s-4.5,8.6-12.6,11.6C290.8,493.4,294.4,484.8,294.4,484.8
			z"/>
		<path class="st7" d="M290.5,496.8c0,1-0.5,1.9-1.3,2.4c-1.6-0.8-3-2.1-3.8-3.7c0.5-0.8,1.4-1.4,2.4-1.4
			C289.2,494,290.5,495.3,290.5,496.8z"/>
		<path class="st7" d="M290.3,485.9c0,1.4-1.1,2.4-2.4,2.4c-1,0-1.9-0.6-2.2-1.5c0.8-1.3,2-2.4,3.4-3.1
			C289.7,484.1,290.3,484.9,290.3,485.9z"/>
		<circle class="st7" cx="293.1" cy="491.3" r="2.6"/>
		<path class="st7" d="M300.6,495.6c-0.8,1.4-1.9,2.5-3.3,3.3c-0.9-0.4-1.5-1.3-1.5-2.3c0-1.4,1.1-2.5,2.5-2.5
			C299.3,494.1,300.2,494.7,300.6,495.6z"/>
		<path class="st7" d="M309.8,465.9c0,1.5-1.2,2.7-2.7,2.7c-0.8,0-1.5-0.3-2-0.9c0.8-1.7,2.2-3,3.9-3.9
			C309.5,464.4,309.8,465.1,309.8,465.9z"/>
		<circle class="st7" cx="312.6" cy="471.7" r="2.6"/>
		<path class="st7" d="M320,467.6c-0.5,0.5-1.1,0.9-1.9,0.9c-1.4,0-2.5-1.1-2.5-2.5c0-0.8,0.3-1.4,0.9-1.9
			C318,464.9,319.3,466.1,320,467.6z"/>
		<path class="st7" d="M319.9,475.7c-0.8,1.4-2,2.6-3.5,3.4c-0.4-0.4-0.7-1-0.7-1.7c0-1.3,1.1-2.4,2.4-2.4
			C318.9,474.9,319.5,475.2,319.9,475.7z"/>
	</g>
	<g>
		<g>
			
				<linearGradient id="SVGID_1_" gradientUnits="userSpaceOnUse" x1="443.9672" y1="571.8608" x2="442.5103" y2="788.9321" gradientTransform="matrix(0.9443 -0.329 0.329 0.9443 -529.9985 -168.2874)">
				<stop  offset="0.4279" style="stop-color:#FCC120"/>
				<stop  offset="0.6982" style="stop-color:#EFB31A"/>
				<stop  offset="1" style="stop-color:#DC9F10"/>
			</linearGradient>
			<path class="st8" d="M104.8,246.8c0,0-52.2,48.6-2.5,108.3c0,0,21.8,22.8,46.2,29.4l3.3-18.8c0,0-45.5-10.6-54.1-46.3
				S104.8,246.8,104.8,246.8z"/>
			
				<linearGradient id="SVGID_00000172435600905662232330000015325200126726847643_" gradientUnits="userSpaceOnUse" x1="73.1626" y1="276.8135" x2="159.1799" y2="373.0287">
				<stop  offset="0.1506" style="stop-color:#FCC120"/>
				<stop  offset="1" style="stop-color:#DC9F10"/>
			</linearGradient>
			<path style="fill:url(#SVGID_00000172435600905662232330000015325200126726847643_);" d="M152.4,390.6l-48.1,0.4
				c-1.6,0-2.8-1.4-2.5-3c0.5-2.7,1.8-6.4,5-8c0,0-19.1-16.4-9.3-26.2c6.7-6.7,17-19.9,23-27.7c3-3.9,4.7-8.5,5.1-13.4l3.9-53.8
				L152.4,390.6z"/>
			<path class="st10" d="M206,376.8c0,0,14.2,8.9,14.2,12.9c0,4-22.2,2.2-22.2,2.2L206,376.8z"/>
			<path class="st11" d="M241.9,398.1l-13.3-0.3c-2.3-0.1-4.1-1.8-4.3-4.1l-2.4-31l-13.3,29.7l-41.7-0.9l0,0
				c5.2,5.6-1.9,7.6-1.9,7.6l-13.4-0.1c-2.2,0-4-1.6-4.3-3.8c-3.1-21.8-18.9-132-18.1-136.4c0.6-3.4,8.8-23.8,13.6-35.7
				c0.9-2.3,1.7-4.7,2.2-7.1c0.7-3.1,1-6.2,0.9-9.3c-0.2-14.4,1.4-46,17.9-73c0,0,2-0.9,5.2-2c10.5-3.6,34.4-9.7,51.3,2.8
				c0.2,0.2,0.5,0.4,0.7,0.5c18.1,14.1,17.1,61.9,16.2,78.9c0,0.7-0.1,1.5-0.1,2.2c0,3.3,0.5,6.6,1.3,9.9c0.4,1.4,0.8,2.9,1.2,4.5
				c2.2,8.5,5,19.9,5.2,25.6c0.4,8.4-2.3,107-3.1,133.8c0,0.7,1.8,1.8,3,2.5c1.4,0.8,1.5,3.3,1.3,4
				C245.7,398.1,241.9,398.1,241.9,398.1z"/>
			<path class="st10" d="M164,133.9l-30,12.9c-3.8,1.6-5.2,6.3-2.9,9.7c5.5,8.3,14.8,21.3,17.8,21.3
				C153.4,177.7,164,133.9,164,133.9z"/>
			<path class="st10" d="M220.2,134.1l30,12.9c3.8,1.6,5.2,6.3,2.9,9.7c-5.5,8.3-14.8,21.3-17.8,21.3
				C230.8,178,220.2,134.1,220.2,134.1z"/>
			<path class="st12" d="M235.3,178c-0.1,2,0.7,12.3-2,19.5c-3.3,9-10.2,15.1-10.2,15.1s-10.6-13.5-24.2-18
				c-17.2-5.6-35.2,22.4-30.2,11.1c5.8-12.9,1.7-66.4,0.4-73.9c10.5-3.6,34.4-9.7,51.3,2.8C222.3,139.6,235.5,173.9,235.3,178z"/>
			<circle class="st10" cx="172.3" cy="175.5" r="9.3"/>
			<circle class="st13" cx="211.6" cy="175.5" r="5.3"/>
			<circle class="st13" cx="172.3" cy="175.4" r="5.3"/>
			<path class="st13" d="M193.1,197.4c1.9,0.6,4.1,0.2,5.5-1.2c1.9-1.8,3.6-4.2,0.8-5.2c-4.6-1.6-11.4-1.8-12.9,1.4
				C185.6,194.5,189.9,196.4,193.1,197.4z"/>
		</g>
		<path class="st14" d="M238.6,226.2c-12.6,9-31.7,33.7-48.3,32.5c-19.3-1.3-47.4-35.4-47.4-35.4c0.9-2.3,1.7-4.7,2.2-7.1
			c47.6,17.3,79,6.8,92.1,0.1C237.2,219.6,237.7,222.9,238.6,226.2C238.9,227.5,238.1,224.5,238.6,226.2z"/>
	</g>
	<path class="st15" d="M256.4,63.8h-140c-6.6,0-12-5.4-12-12V33.7c0-6.6,5.4-12,12-12h140c6.6,0,12,5.4,12,12v18.2
		C268.4,58.4,263,63.8,256.4,63.8z"/>
	<g>
		<rect x="108.8" y="34.1" class="st16" width="153.6" height="44.7"/>
		<text transform="matrix(1.0726 0 0 1 112.2155 48.1919)" class="st17 st18 st19">Pasar al otro día</text>
	</g>
	<path class="st20" d="M365.4,212h-70.2c-2.4,0-4.3-1.9-4.3-4.3V0.5h74.5V212z"/>
	<path class="st21" d="M288.9,0.5V209c0,1.9,1.6,3.5,3.5,3.5h73.5"/>
	<polygon class="st13" points="292.3,209 292.3,197.4 304.9,197.4 304.9,176.9 325,176.9 324.9,194.9 343.9,194.9 344,187.3 
		365.9,187.2 365.9,208.9 	"/>
	<line class="st22" x1="287" y1="40.6" x2="365.7" y2="40.4"/>
	<circle class="st23" cx="311" cy="20.3" r="12.2"/>
	<rect x="129.6" y="518.9" class="st16" width="118.4" height="21.1"/>
	<text transform="matrix(1.0726 0 0 1 170.0278 530.192)" class="st0 st18 st24">Día 1</text>
	<g>
		<circle class="st5" cx="77.5" cy="481.7" r="31.6"/>
		<path class="st6" d="M74.4,467.3c0,0-10.8,15.1-12.4,19.3c-1.6,4.2-2.9,13.6,7.1,15.3c9.9,1.6,20.8-1.3,20.8-1.3s9.1-3.4,3.7-14.5
			C88.2,475,82,467.5,82,467.5L74.4,467.3z"/>
		<g>
			<path class="st4" d="M74.7,475.4c0,0,2.1,4.1,0,5.6c-0.8,0.6-1.7,1.2-2.7,1.6c-1.8,0.6-3.2,1.8-1.6,4.3l0,0l-1.5,0.7
				c-1.4,0.8-2,2.2-1.2,3.6l0.2,0.3l-0.6,0.3c-1.6,1-3.2,3.3-0.3,4.8h0h19.9l0,0l0,0c2.3-1.2,3.1-3.7-0.7-5.3l0,0l0,0
				c0.9-1.3,0.9-3.2-0.4-4.2l-1.5-0.7l0,0l0,0c1.6-1.4,1-3.3-1.3-4.3l-1.1-0.6C81.8,481.5,81.4,474.9,74.7,475.4z"/>
			<ellipse class="st4" cx="76.9" cy="496.3" rx="10.3" ry="0.9"/>
		</g>
		<path class="st6" d="M69.1,460.5c0,0,4.5,5.3,4.9,6.9c0.5,2.2,0.4,0.1,0.4,0.1l7.6,0.1l0,0c0,0,0.8-4.4,2.9-7.5c0,0,0.8-1-2.4-1.4
			c-3.2-0.4-8.4-0.4-10.7,0.1C69.7,459.3,69.1,460.5,69.1,460.5z"/>
		<path class="st7" d="M73.1,467.1l0.2,1.4c0.1,0.4,0.4,0.6,0.8,0.6l8.2,0.2c0.4,0,0.7-0.3,0.8-0.6c0.2-0.9,0.3-2.4-0.7-2.7
			c-1.2-0.3-6.5,0-8.6,0.2C73.4,466.2,73.1,466.6,73.1,467.1z"/>
	</g>
</g>
<g id="Capa_5">
</g>
<g id="Calendario_Baño">
</g>
<g id="Capa_4" class="st35">
	<path class="st36" d="M366.4,212.2h-70.2c-2.4,0-4.3-1.9-4.3-4.3V0.7h74.5V212.2z"/>
	<path class="st37" d="M289.8,0.7v208.5c0,1.9,1.6,3.5,3.5,3.5h73.5"/>
	<polygon class="st38" points="293.3,209.2 293.3,197.6 305.9,197.7 305.9,177.1 325.9,177.1 325.9,195.2 344.9,195.2 344.9,187.5 
		366.9,187.4 366.9,209.2 	"/>
	<line class="st39" x1="288" y1="40.8" x2="366.7" y2="40.6"/>
	<circle class="st40" cx="311.9" cy="20.5" r="12.2"/>
	<path class="st41" d="M367,212h-70.6c-2.4,0-4.3-1.9-4.3-4.3V0.5H367V212z"/>
	<path class="st37" d="M290.1,0.5V209c0,1.9,1.6,3.5,3.5,3.5h73.5"/>
	<line class="st39" x1="288.6" y1="40.5" x2="366.6" y2="40.5"/>
	<polygon class="st38" points="293.4,209 293.6,197.6 305.9,197.4 305.9,176.9 326,176.9 325.9,195 344.9,195 345,187.3 367,187.2 
		366.9,209 	"/>
	<path class="st42" d="M319,30.1c-1.8,1.3-4.1,2-6.5,2c-6.3,0-11.4-5.1-11.4-11.4c0-6.3,5.1-11.4,11.4-11.4c1.2,0,2.3,0.2,3.4,0.5
		c-2.8,2.1-4.7,5.5-4.7,9.3C311.1,24.2,314.4,28.6,319,30.1z"/>
</g>
<g id="Capa_3">
</g>
<g id="Capa_6">
</g>
<g id="Capa_7">
</g>
</svg>
