<?xml version="1.0" encoding="utf-8"?>
<!-- Generator: Adobe Illustrator 26.2.1, SVG Export Plug-In . SVG Version: 6.00 Build 0)  -->
<svg version="1.1" xmlns="http://www.w3.org/2000/svg" xmlns:xlink="http://www.w3.org/1999/xlink" x="0px" y="0px"
	 viewBox="0 0 742 484" style="enable-background:new 0 0 742 484;" xml:space="preserve">
<style type="text/css">
	.st0{fill:url(#SVGID_1_);}
	.st1{fill:#0F2025;}
	.st2{fill:#75C699;}
	.st3{enable-background:new    ;}
	.st4{fill-rule:evenodd;clip-rule:evenodd;fill:#184F4B;}
	.st5{opacity:0.5;fill:#184F4B;}
	.st6{fill:#1B504B;}
	.st7{fill:#73C3B3;}
	.st8{fill:none;stroke:#1B504B;stroke-width:4;stroke-linecap:round;stroke-linejoin:round;}
	.st9{fill:#E3B240;}
	.st10{fill:#8A5244;}
	.st11{fill:#B96C5A;}
	.st12{fill:#278E7F;}
	.st13{fill:#19504B;}
	.st14{fill:#184F4B;}
	.st15{fill:#238D7F;}
	.st16{fill:none;stroke:#184F4B;stroke-width:2;stroke-miterlimit:10;}
	.st17{fill:none;stroke:#8A5244;stroke-width:5;stroke-linecap:round;stroke-miterlimit:10;}
	.st18{fill:#C7897B;}
	.st19{fill:url(#SVGID_00000176726689803063168490000010436457444764458683_);}
	.st20{fill:url(#SVGID_00000004541958879555510780000003786719303668206228_);}
	.st21{fill:#DC9F10;}
	.st22{fill:#FCC120;}
	.st23{fill:#F1F2F1;}
	.st24{fill:#E2413E;}
	.st25{fill:url(#SVGID_00000057830440073358874090000005063692607092654988_);}
	.st26{fill:none;stroke:#FCC120;stroke-width:3;stroke-miterlimit:10;}
	.st27{fill:none;}
	.st28{font-family:'LuloCleanW01-OneBold';}
	.st29{font-size:30px;}
	.st30{font-family:'Avenir-Medium';}
	.st31{font-size:18px;}
	.st32{fill:#123B38;}
	.st33{font-size:16px;}
	.st34{font-size:15px;}
	.st35{fill:#1F8D7F;}
	.st36{fill:#8C5344;}
	.st37{fill:#70C2B4;}
	.st38{fill:#FAC123;}
	.st39{fill:#2A8E7F;}
	.st40{fill:none;stroke:#FFFFFF;stroke-miterlimit:10;}
	.st41{fill:#FFFFFF;}
	.st42{opacity:0.5;fill:#FFFFFF;stroke:#75C4B3;stroke-width:11;stroke-miterlimit:10;}
	.st43{opacity:0.5;fill:none;stroke:#75C4B3;stroke-width:11;stroke-miterlimit:10;}
	.st44{fill:#75C4B3;}
	.st45{fill:none;stroke:#FAC123;stroke-width:5;stroke-linecap:round;stroke-linejoin:round;}
	.st46{fill:url(#SVGID_00000027578343460809665370000013930130334102807473_);}
	.st47{fill:url(#SVGID_00000026864109299425850440000010930449324435485340_);}
	.st48{fill-rule:evenodd;clip-rule:evenodd;fill:#FCC120;}
	.st49{fill-rule:evenodd;clip-rule:evenodd;fill:#19524D;}
	.st50{fill-rule:evenodd;clip-rule:evenodd;fill:#19524D;stroke:#184F4B;stroke-width:2;stroke-miterlimit:100;}
	.st51{fill-rule:evenodd;clip-rule:evenodd;fill:none;stroke:#184F4B;stroke-width:2;stroke-miterlimit:100;}
	.st52{fill:none;stroke:#184F4B;stroke-width:2;stroke-miterlimit:100;}
	.st53{fill:#BB6E5A;}
	.st54{fill:#9FD2C7;}
	.st55{fill:#7BC5B4;}
	.st56{fill:#1A5C58;}
	.st57{fill:#164F4B;}
	.st58{fill:#0F2025;stroke:#164F4B;stroke-miterlimit:10;}
	.st59{fill:#AF3230;}
	.st60{fill:#676766;}
	.st61{fill:none;stroke:#70C2B4;stroke-width:0.75;stroke-miterlimit:10;}
	.st62{fill:url(#SVGID_00000076565553399864224220000006288954788965642662_);}
	.st63{fill:url(#SVGID_00000088108224582735635720000004429346674798441115_);}
	.st64{fill:url(#SVGID_00000103963203171764029600000007443632669035731340_);}
</style>
<g id="Capa_0__x2B__Layer_3__x2B__Layer_13__x2B__Elipse_1_copia__x2B__Forma_15__x2B__Forma_15_copia__x2B__beneficios_de_la__proteína_de_insecto:__xBF_Por_qué_Circular_Pet_x3F____x2B__Layer_5__x2B__Rectangle_1__x2B__ducha__x2B__Layer_21__x2B__Layer_18__x2B__caca__x2B__juguete__x2B__comida_xA0_Imagen_00000075130668628454935530000001341663195064224159_">
</g>
<g id="Rounded_Rectangle_2_00000051370117679351072980000012833100270630307469_" class="st3">
	<path class="st2" d="M711.3,91.1l-0.4,264.4c0,31.2-25.4,56.5-56.6,56.5l-541-0.8c-31.2-0.1-56.4-25.3-56.4-56.5l0-212.1
		c2.8,0.5,5.8,0.8,8.7,0.8c26.8,0,48.5-21.7,48.5-48.5c0-18.5-10.3-34.5-25.5-42.7c-3.1-2.1-6.4-3.8-10-5.2
		c9.4-7.2,21.1-11.5,33.9-11.5h543.1C686.4,35.5,711.3,60.4,711.3,91.1z"/>
	<rect x="118.8" y="62.5" class="st27" width="567.6" height="54.8"/>
	<text transform="matrix(1 0 0 1 123.8892 85.9249)" class="st14 st28 st29">Recolección de heces</text>
	<rect x="123" y="105.8" class="st27" width="529.7" height="40.4"/>
	<text transform="matrix(1 0 0 1 122.989 119.3584)"><tspan x="0" y="0" class="st14 st30 st31">Utiliza bolsas que impacten menos al menos al medio ambiente </tspan><tspan x="0" y="21.4" class="st14 st30 st31">al momento de recoger heces. </tspan></text>
	<path class="st5" d="M519.7,327.8H240.5c-35.8,0-64.8-29-64.8-64.8v-30.6c0-35.8,29-64.8,64.8-64.8h279.2c35.8,0,64.8,29,64.8,64.8
		V263C584.5,298.8,555.5,327.8,519.7,327.8z"/>
	<path class="st6" d="M218.5,189.4v77.4c0,3.5,2.9,6.4,6.4,6.4h52.8c3.5,0,6.4-2.9,6.4-6.4v-77.1c0-3.6-2.9-6.5-6.5-6.4h0
		c-3.5,0-6.4,2.9-6.4,6.5l0,8.5c0,4.6-4.6,7.7-8.8,6l-3.3-1.3c-0.7-0.3-1.5-0.5-2.3-0.5l-10.8-0.1c-1,0-1.9,0.2-2.8,0.6l-0.9,0.4
		c-4.3,2-9.2-1.1-9.2-5.8v-8.3c0-3.5-2.9-6.4-6.4-6.4c-0.6,0-1.2,0-1.8,0C221.4,183,218.5,185.9,218.5,189.4z"/>
	<g>
		<path class="st7" d="M349.7,188.1v77.4c0,3.5,2.9,6.4,6.4,6.4h52.8c3.5,0,6.4-2.9,6.4-6.4v-77.1c0-3.6-2.9-6.5-6.5-6.4l0,0
			c-3.5,0-6.4,2.9-6.4,6.5l0,8.5c0,4.6-4.6,7.7-8.8,6l-3.3-1.3c-0.7-0.3-1.5-0.5-2.3-0.5l-10.8-0.1c-1,0-1.9,0.2-2.8,0.6l-0.9,0.4
			c-4.3,2-9.2-1.1-9.2-5.8v-8.3c0-3.5-2.9-6.4-6.4-6.4c-0.6,0-1.2,0-1.8,0C352.6,181.6,349.7,184.5,349.7,188.1z"/>
		<g>
			<g>
				<path class="st8" d="M365.2,236c0.4-7.2,5.2-13.3,11.7-15.7"/>
				<g>
					<polygon class="st6" points="376.1,226.9 385.5,219.5 374.3,215.1 					"/>
				</g>
			</g>
		</g>
		<g>
			<g>
				<path class="st8" d="M392.7,252.2c-2.8,1.8-6.1,2.8-9.6,2.8c-5.8,0-10.9-2.8-14.2-7"/>
				<g>
					<polygon class="st6" points="375.3,246.8 365.4,240 364.5,251.9 					"/>
				</g>
			</g>
		</g>
		<g>
			<g>
				<path class="st8" d="M389.5,220.5c6.6,2.6,11.4,9.1,11.4,16.6c0,1.8-0.3,3.6-0.8,5.2"/>
				<g>
					<polygon class="st6" points="395.4,237.8 395.6,249.8 405.9,243.6 					"/>
				</g>
			</g>
		</g>
	</g>
	<path class="st9" d="M519.6,327.4L519.6,327.4c-35.8,0-64.8-29-64.8-64.8v-30.7c0-35.8,29-64.8,64.8-64.8h0
		c35.8,0,64.8,29,64.8,64.8v30.7C584.5,298.4,555.5,327.4,519.6,327.4z"/>
	<g>
		<g>
			<path class="st10" d="M556.9,194.5l-8.6,70.5c-0.4,3.3-3.4,5.7-6.8,5.3l-47.8-5.8c-3.3-0.4-5.7-3.4-5.3-6.8l8.6-70.5
				c0.4-3.1,3-5.4,6.1-5.3l1.6,1.5l2.3-1.1l0.2,0l1.9,1.5l2.1-1l1.8,1.4l2.3-0.9l1.9,1.4l2.3-0.9l2.1,1.5l2.1-1l1.8,1.6l2.1-1.1
				l0.1,0l1.7,1.5l1.8-1l1.6,1.4l2.1-1l0.1,0l1.7,1.4l2.2-0.9l0.1,0l1.8,1.5l2.1-1.1l2,1.6l2.2-1.1l0.1,0l1.8,1.7l1.8-1.3l0.8,0.1
				C554.9,188.1,557.3,191.2,556.9,194.5z"/>
			<path class="st11" d="M552.6,196.8l-8.6,70.5c-0.4,3.3-3.4,5.7-6.8,5.3l-47.8-5.8c-3.3-0.4-5.7-3.4-5.3-6.8l8.6-70.5
				c0.4-3.3,3.4-5.7,6.8-5.3l47.8,5.8C550.6,190.4,553,193.4,552.6,196.8z"/>
		</g>
		<path class="st10" d="M544.5,262.5l-0.6,4.8c-0.4,3.3-3.4,5.7-6.8,5.3l-47.8-5.8c-3.3-0.4-5.7-3.4-5.3-6.8l0.6-4.8L544.5,262.5z"
			/>
	</g>
	<rect x="212.1" y="280.3" class="st27" width="79.1" height="42.4"/>
	<text transform="matrix(1 0 0 1 224.3879 292.4344)"><tspan x="0" y="0" class="st32 st30 st33">Plástica</tspan><tspan x="-5.2" y="17" class="st32 st30 st33">150 años</tspan></text>
	<rect x="326.4" y="280.3" class="st27" width="115.1" height="42.4"/>
	<text transform="matrix(1 0 0 1 330.6362 292.4344)"><tspan x="0" y="0" class="st32 st30 st33">Biodegradable</tspan><tspan x="22.8" y="17" class="st32 st30 st33">2-3 años</tspan></text>
	<rect x="459.7" y="280.3" class="st27" width="115.1" height="42.4"/>
	<text transform="matrix(1 0 0 1 497.1101 292.4344)"><tspan x="0" y="0" class="st32 st30 st33">Papel</tspan><tspan x="0.1" y="17" class="st32 st30 st33">1 año</tspan></text>
	<rect x="155.8" y="346.4" class="st27" width="459.2" height="70.7"/>
	<text transform="matrix(1.0535 0 0 1 165.7603 357.7636)"><tspan x="0" y="0" class="st14 st30 st34">Las bolsas de papel son una alternativa amigable al momento </tspan><tspan x="7.5" y="16.1" class="st14 st30 st34">de llegar al vertedero y su huella de carbono es la más baja </tspan><tspan x="158" y="32.3" class="st14 st30 st34">entre las otras. </tspan></text>
	<path class="st35" d="M62.8,73.1c0,0-16.2,22.7-18.6,29c-2.4,6.3-4.4,20.5,10.6,23s31.3-1.9,31.3-1.9s13.7-5,5.6-21.8
		s-17.4-28-17.4-28L62.8,73.1z"/>
	<g>
		<path class="st36" d="M63.2,85.3c0,0,3.2,6.2,0.1,8.4c-1.2,0.8-2.6,1.9-4.1,2.4c-2.7,1-4.8,2.8-2.4,6.4l0,0l-2.2,1
			c-2.1,1.2-3,3.3-1.9,5.5l0.3,0.4l-0.9,0.5c-2.4,1.4-4.8,5-0.5,7.2h0h29.9l0,0l0,0c3.4-1.9,4.7-5.6-1.1-8l0,0l0,0
			c1.4-1.9,1.3-4.9-0.6-6.3l-2.3-1.1l0,0v0c2.5-2.1,1.5-5-2-6.4l-1.6-0.8C73.9,94.5,73.4,84.5,63.2,85.3z"/>
		<ellipse class="st36" cx="66.5" cy="116.7" rx="15.5" ry="1.3"/>
	</g>
	<path class="st35" d="M54.9,62.9c0,0,6.7,7.9,7.3,10.4c0.8,3.3,0.6,0.1,0.6,0.1l11.5,0.2l0,0c0,0,1.3-6.6,4.4-11.4
		c0,0,1.2-1.5-3.6-2.1c-4.8-0.6-12.7-0.6-16.1,0.1C55.7,61.1,54.9,62.9,54.9,62.9z"/>
	<path class="st37" d="M60.9,72.8l0.4,2.1c0.1,0.6,0.6,1,1.1,1l12.4,0.3c0.6,0,1.1-0.4,1.2-1c0.2-1.3,0.4-3.6-1.1-4
		c-1.7-0.4-9.7,0-12.9,0.2C61.3,71.4,60.8,72.1,60.9,72.8z"/>
</g>
<g id="_xBF_cómo_puedo_cambiar__estas_cifras_x3F__00000152263609578016933160000014136288578083399866_">
</g>
<g id="Como_todo_amante_de_los_perros_x2C__queremos_ayudar_a_contribuir_en_00000011733512487406081120000002725721765515406722_">
</g>
<g id="planeta__x28_1_x29__xA0_Imagen_00000013163211555353389270000004020259514959330223_">
</g>
<g id="ALIMENTACIÓN_SALUDABLE">
</g>
<g id="Una_de_las_características_más_importantes_de_nuestro_alimento_00000100354037678002338480000007178312657788550569_">
</g>
<g id="Grupo_2_00000024000952648228487930000017275331328228087186_">
	<g id="_________Buena_palatabilidad__La_proteína_de_insecto_es_atracti_00000129909447037396045210000001024845338240710322_">
	</g>
	<g id="___Alto_contenido_proteico__Los_alimentos_a_base_de_insecto__so_00000060005588707382666440000007434461005704951179_">
	</g>
	<g id="_____Buena_fuente_de_grasa_Los_insectos_además_presentan__ácido_00000121241549061665136040000001874871901791481517_">
	</g>
	
		<g id="______Sales_minerales__Aporte_de_potasio_x2C__calcio_x2C__hierro__y__ma_00000172442137195194404910000017939992249353481656_">
	</g>
	<g id="___Pellet_hipoalergénico_Hipoalergénicas_debido_a_la_falta__de_00000018234623172683213150000016354546497805835144_">
	</g>
	<g id="_________Fácil_digestión__La_digestibilidad_de_este_tipo_de__al_00000014592046028586798640000014716350303710368679_">
	</g>
</g>
<g id="Elipse_1_00000049204041052049763990000018105301924899697042_" class="st3">
</g>
<g id="Grupo_3_00000120528684210048104610000017274967786067115692_">
</g>
<g id="lineas_abajo_00000085956935671561973180000011788473021631000194_">
</g>
<g id="lineas_abajo_copia_00000068656291613933907220000004900866062167868335_">
</g>
<g id="bolsa_xA0_Imagen_00000150061797833055288570000015644897799785854888_">
</g>
<g id="pelet_xA0_Imagen_00000032620151523953347190000001636828173157071274_">
</g>
<g id="CUIDADO_DEL__x0D_MEDIO_AMBIENTE">
</g>
<g id="La_proteína_de_insectos_comparada_a_los_alimentos_caninos_tradi_00000132768194183204093320000006353738126914280069_">
</g>
<g id="Menor_consumo_de__agua_en_la_producción__de_alimentos_00000183228761448657468520000014979274667922305698_">
</g>
<g id="Menor_emisiones__x0D_de_gases">
</g>
<g id="Menor_gasto_de_recursos_naturales_00000183237296809122879940000007563811076549819577_">
</g>
<g id="Menor_producción_de_desechos_agrícolas_00000109713708323889345400000004601833777820593033_">
</g>
<g id="Producido_localmente">
</g>
</svg>
