<svg xmlns="http://www.w3.org/2000/svg" viewBox="0 0 1024.54 222.64"><defs><style>.cls-1{fill:#f9c121;}.cls-2{fill:#288f7f;}</style></defs><g id="Layer_2" data-name="Layer 2"><g id="Layer_2-2" data-name="Layer 2"><path class="cls-1" d="M95.89,107.85c-.32,3.4-.48,5.14-1.29,6.63A11.91,11.91,0,0,1,87.33,120c-1,.23-5,1.16-7.91-1.28a8.83,8.83,0,0,1-2.64-5.26c-.44-2.12-.15-3.53.12-5.9a88.92,88.92,0,0,0,.38-9.81A51.11,51.11,0,0,0,76,87.53c-1.2-5.91-3.48-13.4-4.4-13.23-.53.1-.42,2.68-.31,6.17.34,11.19-.08,22.39.21,33.58,0,1.69,0,.39,0,10.27,0,22.61.33,43.38.43,49.62.27,17.47.48,21.95.22,25.67-.12,1.71-.18,18-1.61,19.23-1.59,1.36-4.28,3.66-8,3.79-4.62.17-8.55-3-10.47-6.12-1.61-2.59-1.66-6.54-1.71-14.33,0-4.26.15-5.79.21-9.84.09-5.74-.17-8.45-.43-14.76-.33-8.33,0-12.61-.42-26.74-.1-3.3-.28-8.16-.65-14.12l-1.87-.06v.06c-.37,6-.54,10.82-.65,14.12-.42,13.43.06,14.69-.42,26.74-.26,6.31-.52,9-.43,14.76.06,4,.24,5.58.21,9.84-.05,7.79-.1,11.74-1.71,14.33-1.92,3.09-5.85,6.29-10.47,6.12-3.75-.13-6.44-2.43-8-3.79-1.43-1.21-1.49-17.52-1.61-19.23-.26-3.72,0-8.2.22-25.67.1-6.24.4-27,.43-49.62,0-9.88-.05-8.58,0-10.27.29-11.19-.13-22.39.21-33.58.11-3.49.22-6.07-.31-6.17-.92-.17-3.2,7.32-4.4,13.23a51.11,51.11,0,0,0-1.28,10.26,88.92,88.92,0,0,0,.38,9.81c.27,2.37.56,3.78.12,5.9a8.83,8.83,0,0,1-2.64,5.26c-2.87,2.44-6.92,1.51-7.91,1.28a11.94,11.94,0,0,1-7.27-5.56c-.81-1.49-1-3.23-1.29-6.63A72.29,72.29,0,0,1,0,98.55,84.05,84.05,0,0,1,1.18,87.31c1.26-7.42,2.49-14.78,7.06-22.88a46.19,46.19,0,0,1,15.18-16.9,36,36,0,0,1,14.33-5.78c1-.16,2-.26,2.87-.33-.22,0-.38,0-.31-.09,2-.11,5.76-.51,7.74-.61h1.54c2.22-.25,5.1.43,8.87,1a36,36,0,0,1,14.33,5.78A46.1,46.1,0,0,1,88,64.43c4.57,8.1,5.8,15.46,7.06,22.88a84.05,84.05,0,0,1,1.14,11.24A72.29,72.29,0,0,1,95.89,107.85Z"/><circle class="cls-1" cx="48.37" cy="18.36" r="18.36"/><circle class="cls-1" cx="151.52" cy="18.36" r="18.36"/><path class="cls-1" d="M199,107.85c-.32,3.4-.48,5.14-1.28,6.63a12,12,0,0,1-7.28,5.56c-1,.23-5,1.16-7.91-1.28a8.83,8.83,0,0,1-2.64-5.26c-.44-2.12-.15-3.53.12-5.9a86,86,0,0,0,.38-9.81,51.11,51.11,0,0,0-1.28-10.26c-1.2-5.91-3.48-13.4-4.4-13.23-.53.1-.42,2.68-.31,6.17.34,11.19-.07,22.39.21,33.58,0,1.69,0,.39,0,10.27,0,22.61.34,43.38.43,49.62.27,17.47.48,21.95.22,25.67-.12,1.71-.18,18-1.61,19.23-1.59,1.36-4.28,3.66-8,3.79-4.62.17-8.55-3-10.47-6.12-1.61-2.59-1.66-6.54-1.71-14.33,0-4.26.15-5.79.21-9.84.09-5.74-.17-8.45-.43-14.76-.33-8.33,0-12.61-.42-26.74-.1-3.3-.28-8.16-.64-14.12-.63,0-1.26,0-1.88-.06v.06c-.37,6-.54,10.82-.64,14.12-.43,13.43,0,14.69-.43,26.74-.26,6.31-.52,9-.43,14.76.06,4,.24,5.58.21,9.84-.05,7.79-.1,11.74-1.71,14.33-1.92,3.09-5.85,6.29-10.47,6.12-3.75-.13-6.44-2.43-8-3.79-1.42-1.21-1.48-17.52-1.6-19.23-.27-3.72-.06-8.2.21-25.67.1-6.24.4-27,.43-49.62,0-9.88,0-8.58,0-10.27.29-11.19-.13-22.39.21-33.58.11-3.49.22-6.07-.31-6.17-.92-.17-3.2,7.32-4.39,13.23a50.34,50.34,0,0,0-1.29,10.26,88.92,88.92,0,0,0,.38,9.81c.27,2.37.56,3.78.12,5.9a8.83,8.83,0,0,1-2.64,5.26c-2.87,2.44-6.92,1.51-7.91,1.28a11.94,11.94,0,0,1-7.27-5.56c-.81-1.49-1-3.23-1.29-6.63a72.29,72.29,0,0,1-.28-9.3,84.05,84.05,0,0,1,1.14-11.24c1.26-7.42,2.49-14.78,7.06-22.88a46.19,46.19,0,0,1,15.18-16.9,36,36,0,0,1,14.34-5.78c1-.16,2-.26,2.86-.33-.22,0-.38,0-.31-.09,2-.11,5.76-.51,7.75-.61h1.53c2.22-.25,5.1.43,8.87,1a36,36,0,0,1,14.33,5.78,46.1,46.1,0,0,1,15.18,16.9c4.57,8.1,5.8,15.46,7.06,22.88a84.05,84.05,0,0,1,1.14,11.24A72.29,72.29,0,0,1,199,107.85Z"/><path class="cls-1" d="M302.18,107.85c-.32,3.4-.48,5.14-1.28,6.63a11.94,11.94,0,0,1-7.27,5.56c-1,.23-5,1.16-7.92-1.28a8.89,8.89,0,0,1-2.64-5.26c-.44-2.12-.14-3.53.13-5.9a88.92,88.92,0,0,0,.38-9.81,50.34,50.34,0,0,0-1.29-10.26c-1.19-5.91-3.47-13.4-4.39-13.23-.53.1-.42,2.68-.31,6.17.34,11.19-.08,22.39.21,33.58,0,1.69,0,.39,0,10.27,0,22.61.33,43.38.43,49.62.27,17.47.47,21.95.21,25.67-.12,1.71-.18,18-1.6,19.23-1.59,1.36-4.29,3.66-8,3.79-4.62.17-8.56-3-10.47-6.12-1.61-2.59-1.67-6.54-1.72-14.33,0-4.26.15-5.79.22-9.84.09-5.74-.17-8.45-.43-14.76-.34-8.33,0-12.61-.43-26.74-.09-3.3-.27-8.16-.64-14.12l-1.88-.06v.06c-.36,6-.53,10.82-.64,14.12-.43,13.43.06,14.69-.43,26.74-.25,6.31-.52,9-.42,14.76.06,4,.24,5.58.21,9.84-.05,7.79-.11,11.74-1.71,14.33-1.92,3.09-5.86,6.29-10.47,6.12-3.75-.13-6.45-2.43-8-3.79-1.42-1.21-1.48-17.52-1.6-19.23-.26-3.72-.06-8.2.22-25.67.09-6.24.4-27,.42-49.62,0-9.88,0-8.58,0-10.27.29-11.19-.12-22.39.22-33.58.1-3.49.22-6.07-.31-6.17-.92-.17-3.21,7.32-4.4,13.23a50.39,50.39,0,0,0-1.28,10.26,86,86,0,0,0,.38,9.81c.27,2.37.56,3.78.12,5.9a8.83,8.83,0,0,1-2.64,5.26c-2.88,2.44-6.93,1.51-7.92,1.28a11.94,11.94,0,0,1-7.27-5.56c-.8-1.49-1-3.23-1.28-6.63a73,73,0,0,1-.29-9.3,87.64,87.64,0,0,1,1.14-11.24c1.27-7.42,2.5-14.78,7.06-22.88a46.24,46.24,0,0,1,15.19-16.9,36,36,0,0,1,14.33-5.78c1-.16,1.95-.26,2.86-.33-.22,0-.38,0-.31-.09,2-.11,5.77-.51,7.75-.61h1.54c2.22-.25,5.09.43,8.86,1a35.9,35.9,0,0,1,14.33,5.78,46.24,46.24,0,0,1,15.19,16.9c4.57,8.1,5.79,15.46,7.06,22.88a85.81,85.81,0,0,1,1.14,11.24A73,73,0,0,1,302.18,107.85Z"/><path class="cls-1" d="M236.3,18.36a18.37,18.37,0,1,1,18.37,18.36A18.36,18.36,0,0,1,236.3,18.36Z"/><path class="cls-1" d="M405.33,107.85c-.32,3.4-.48,5.14-1.28,6.63a11.94,11.94,0,0,1-7.27,5.56c-1,.23-5,1.16-7.92-1.28a8.89,8.89,0,0,1-2.64-5.26c-.44-2.12-.14-3.53.13-5.9a88.92,88.92,0,0,0,.38-9.81,50.34,50.34,0,0,0-1.29-10.26c-1.19-5.91-3.47-13.4-4.39-13.23-.53.1-.42,2.68-.31,6.17.34,11.19-.08,22.39.21,33.58,0,1.69,0,.39,0,10.27,0,22.61.33,43.38.43,49.62.27,17.47.47,21.95.21,25.67-.12,1.71-.18,18-1.6,19.23-1.59,1.36-4.29,3.66-8,3.79-4.62.17-8.56-3-10.47-6.12-1.61-2.59-1.67-6.54-1.72-14.33,0-4.26.15-5.79.22-9.84.09-5.74-.17-8.45-.43-14.76-.34-8.33,0-12.61-.43-26.74-.09-3.3-.27-8.16-.64-14.12l-1.88-.06v.06c-.36,6-.53,10.82-.64,14.12-.43,13.43.06,14.69-.43,26.74-.25,6.31-.52,9-.42,14.76.06,4,.24,5.58.21,9.84-.05,7.79-.11,11.74-1.71,14.33-1.92,3.09-5.86,6.29-10.47,6.12-3.75-.13-6.45-2.43-8-3.79-1.42-1.21-1.48-17.52-1.6-19.23-.26-3.72-.06-8.2.22-25.67.09-6.24.4-27,.42-49.62,0-9.88,0-8.58,0-10.27.29-11.19-.12-22.39.22-33.58.1-3.49.22-6.07-.31-6.17-.92-.17-3.21,7.32-4.4,13.23a50.39,50.39,0,0,0-1.28,10.26,86,86,0,0,0,.38,9.81c.27,2.37.56,3.78.12,5.9a8.83,8.83,0,0,1-2.64,5.26c-2.88,2.44-6.93,1.51-7.92,1.28a11.94,11.94,0,0,1-7.27-5.56c-.8-1.49-1-3.23-1.28-6.63a73,73,0,0,1-.29-9.3,87.64,87.64,0,0,1,1.14-11.24c1.27-7.42,2.5-14.78,7.06-22.88a46.24,46.24,0,0,1,15.19-16.9,36,36,0,0,1,14.33-5.78c1-.16,1.95-.26,2.86-.33-.22,0-.38,0-.31-.09,2-.11,5.77-.51,7.75-.61H359c2.22-.25,5.09.43,8.86,1a35.9,35.9,0,0,1,14.33,5.78,46.24,46.24,0,0,1,15.19,16.9c4.57,8.1,5.79,15.46,7.06,22.88a85.81,85.81,0,0,1,1.14,11.24A73,73,0,0,1,405.33,107.85Z"/><path class="cls-1" d="M339.45,18.36a18.37,18.37,0,1,1,18.37,18.36A18.36,18.36,0,0,1,339.45,18.36Z"/><path class="cls-1" d="M508.48,107.85c-.32,3.4-.48,5.14-1.28,6.63a11.94,11.94,0,0,1-7.27,5.56c-1,.23-5,1.16-7.92-1.28a8.89,8.89,0,0,1-2.64-5.26c-.44-2.12-.14-3.53.13-5.9a88.92,88.92,0,0,0,.38-9.81,50.34,50.34,0,0,0-1.29-10.26c-1.19-5.91-3.47-13.4-4.39-13.23-.53.1-.42,2.68-.31,6.17.34,11.19-.08,22.39.21,33.58,0,1.69,0,.39,0,10.27,0,22.61.33,43.38.43,49.62.27,17.47.47,21.95.21,25.67-.12,1.71-.18,18-1.6,19.23-1.59,1.36-4.29,3.66-8,3.79-4.62.17-8.56-3-10.47-6.12-1.61-2.59-1.67-6.54-1.72-14.33,0-4.26.15-5.79.22-9.84.09-5.74-.17-8.45-.43-14.76-.34-8.33,0-12.61-.43-26.74-.09-3.3-.27-8.16-.64-14.12l-1.88-.06v.06c-.36,6-.53,10.82-.64,14.12-.43,13.43.06,14.69-.43,26.74-.25,6.31-.52,9-.42,14.76.06,4,.24,5.58.21,9.84-.05,7.79-.11,11.74-1.71,14.33-1.92,3.09-5.86,6.29-10.47,6.12-3.75-.13-6.45-2.43-8-3.79-1.42-1.21-1.48-17.52-1.6-19.23-.26-3.72-.06-8.2.22-25.67.09-6.24.4-27,.42-49.62,0-9.88,0-8.58,0-10.27.29-11.19-.12-22.39.22-33.58.1-3.49.22-6.07-.31-6.17-.92-.17-3.21,7.32-4.4,13.23a50.39,50.39,0,0,0-1.28,10.26,86,86,0,0,0,.38,9.81c.27,2.37.56,3.78.12,5.9a8.83,8.83,0,0,1-2.64,5.26c-2.88,2.44-6.93,1.51-7.92,1.28a11.94,11.94,0,0,1-7.27-5.56c-.8-1.49-1-3.23-1.28-6.63a73,73,0,0,1-.29-9.3,87.64,87.64,0,0,1,1.14-11.24c1.27-7.42,2.5-14.78,7.06-22.88A46.24,46.24,0,0,1,436,47.53a36,36,0,0,1,14.33-5.78c1-.16,1.95-.26,2.86-.33-.22,0-.38,0-.31-.09,2-.11,5.77-.51,7.75-.61h1.54c2.22-.25,5.09.43,8.86,1a35.9,35.9,0,0,1,14.33,5.78,46.24,46.24,0,0,1,15.19,16.9c4.57,8.1,5.79,15.46,7.06,22.88a85.81,85.81,0,0,1,1.14,11.24A73,73,0,0,1,508.48,107.85Z"/><path class="cls-1" d="M442.6,18.36A18.37,18.37,0,1,1,461,36.72,18.36,18.36,0,0,1,442.6,18.36Z"/><path class="cls-1" d="M611.62,107.85c-.32,3.4-.48,5.14-1.28,6.63a11.94,11.94,0,0,1-7.27,5.56c-1,.23-5,1.16-7.92-1.28a8.89,8.89,0,0,1-2.64-5.26c-.44-2.12-.14-3.53.13-5.9a88.92,88.92,0,0,0,.38-9.81,50.34,50.34,0,0,0-1.29-10.26c-1.19-5.91-3.47-13.4-4.39-13.23-.53.1-.42,2.68-.31,6.17.34,11.19-.08,22.39.21,33.58,0,1.69,0,.39,0,10.27,0,22.61.33,43.38.43,49.62.27,17.47.47,21.95.21,25.67-.12,1.71-.18,18-1.6,19.23-1.59,1.36-4.29,3.66-8,3.79-4.62.17-8.56-3-10.47-6.12-1.61-2.59-1.67-6.54-1.72-14.33,0-4.26.15-5.79.22-9.84.09-5.74-.17-8.45-.43-14.76-.34-8.33,0-12.61-.43-26.74-.09-3.3-.27-8.16-.64-14.12l-1.88-.06v.06c-.36,6-.53,10.82-.64,14.12-.43,13.43.06,14.69-.43,26.74-.25,6.31-.52,9-.42,14.76.06,4,.24,5.58.21,9.84,0,7.79-.11,11.74-1.71,14.33-1.92,3.09-5.86,6.29-10.47,6.12-3.75-.13-6.45-2.43-8-3.79-1.42-1.21-1.48-17.52-1.6-19.23-.26-3.72-.06-8.2.22-25.67.09-6.24.4-27,.42-49.62,0-9.88,0-8.58,0-10.27.29-11.19-.12-22.39.22-33.58.1-3.49.22-6.07-.31-6.17-.92-.17-3.21,7.32-4.4,13.23a50.39,50.39,0,0,0-1.28,10.26,86,86,0,0,0,.38,9.81c.27,2.37.56,3.78.12,5.9a8.83,8.83,0,0,1-2.64,5.26c-2.88,2.44-6.93,1.51-7.92,1.28a11.94,11.94,0,0,1-7.27-5.56c-.8-1.49-1-3.23-1.28-6.63a73,73,0,0,1-.29-9.3,87.64,87.64,0,0,1,1.14-11.24c1.27-7.42,2.5-14.78,7.06-22.88a46.24,46.24,0,0,1,15.19-16.9,36,36,0,0,1,14.33-5.78c1-.16,2-.26,2.86-.33-.22,0-.38,0-.31-.09,2-.11,5.77-.51,7.75-.61h1.54c2.22-.25,5.09.43,8.86,1a35.9,35.9,0,0,1,14.33,5.78,46.24,46.24,0,0,1,15.19,16.9c4.57,8.1,5.79,15.46,7.06,22.88a85.81,85.81,0,0,1,1.14,11.24A73,73,0,0,1,611.62,107.85Z"/><path class="cls-1" d="M545.74,18.36a18.37,18.37,0,1,1,18.37,18.36A18.36,18.36,0,0,1,545.74,18.36Z"/><path class="cls-1" d="M714.77,107.85c-.32,3.4-.48,5.14-1.28,6.63a11.94,11.94,0,0,1-7.27,5.56c-1,.23-5,1.16-7.92-1.28a8.89,8.89,0,0,1-2.64-5.26c-.44-2.12-.14-3.53.13-5.9a88.92,88.92,0,0,0,.38-9.81,50.34,50.34,0,0,0-1.29-10.26c-1.19-5.91-3.47-13.4-4.39-13.23-.53.1-.42,2.68-.31,6.17.34,11.19-.08,22.39.21,33.58,0,1.69,0,.39,0,10.27,0,22.61.33,43.38.43,49.62.27,17.47.47,21.95.21,25.67-.12,1.71-.18,18-1.6,19.23-1.59,1.36-4.29,3.66-8,3.79-4.62.17-8.56-3-10.47-6.12-1.61-2.59-1.67-6.54-1.72-14.33,0-4.26.15-5.79.22-9.84.09-5.74-.17-8.45-.43-14.76-.34-8.33,0-12.61-.43-26.74-.09-3.3-.27-8.16-.64-14.12l-1.88-.06v.06c-.36,6-.53,10.82-.64,14.12-.43,13.43.06,14.69-.43,26.74-.25,6.31-.52,9-.42,14.76.06,4,.24,5.58.21,9.84,0,7.79-.11,11.74-1.71,14.33-1.92,3.09-5.86,6.29-10.47,6.12-3.75-.13-6.45-2.43-8-3.79-1.42-1.21-1.48-17.52-1.6-19.23-.26-3.72-.06-8.2.22-25.67.09-6.24.4-27,.42-49.62,0-9.88,0-8.58,0-10.27.29-11.19-.12-22.39.22-33.58.1-3.49.22-6.07-.31-6.17-.92-.17-3.21,7.32-4.4,13.23a50.39,50.39,0,0,0-1.28,10.26,86,86,0,0,0,.38,9.81c.27,2.37.56,3.78.12,5.9a8.83,8.83,0,0,1-2.64,5.26c-2.88,2.44-6.93,1.51-7.92,1.28a11.94,11.94,0,0,1-7.27-5.56c-.8-1.49-1-3.23-1.28-6.63a73,73,0,0,1-.29-9.3,87.64,87.64,0,0,1,1.14-11.24c1.27-7.42,2.5-14.78,7.06-22.88a46.24,46.24,0,0,1,15.19-16.9,36,36,0,0,1,14.33-5.78c1-.16,2-.26,2.86-.33-.22,0-.38,0-.31-.09,2-.11,5.77-.51,7.75-.61h1.54c2.22-.25,5.09.43,8.86,1a35.9,35.9,0,0,1,14.33,5.78,46.24,46.24,0,0,1,15.19,16.9c4.57,8.1,5.79,15.46,7.06,22.88a85.81,85.81,0,0,1,1.14,11.24A73,73,0,0,1,714.77,107.85Z"/><path class="cls-1" d="M648.89,18.36a18.37,18.37,0,1,1,18.37,18.36A18.36,18.36,0,0,1,648.89,18.36Z"/><path class="cls-2" d="M817.92,107.85c-.32,3.4-.48,5.14-1.28,6.63a11.94,11.94,0,0,1-7.27,5.56c-1,.23-5,1.16-7.92-1.28a8.89,8.89,0,0,1-2.64-5.26c-.44-2.12-.14-3.53.13-5.9a88.92,88.92,0,0,0,.38-9.81A50.34,50.34,0,0,0,798,87.53c-1.19-5.91-3.47-13.4-4.39-13.23-.53.1-.42,2.68-.31,6.17.34,11.19-.08,22.39.21,33.58,0,1.69,0,.39,0,10.27,0,22.61.33,43.38.43,49.62.27,17.47.47,21.95.21,25.67-.12,1.71-.18,18-1.6,19.23-1.59,1.36-4.29,3.66-8,3.79-4.62.17-8.56-3-10.47-6.12-1.61-2.59-1.67-6.54-1.72-14.33,0-4.26.15-5.79.22-9.84.09-5.74-.17-8.45-.43-14.76-.34-8.33,0-12.61-.43-26.74-.09-3.3-.27-8.16-.64-14.12l-1.88-.06v.06c-.36,6-.53,10.82-.64,14.12-.43,13.43.06,14.69-.43,26.74-.25,6.31-.52,9-.42,14.76.06,4,.24,5.58.21,9.84,0,7.79-.11,11.74-1.71,14.33-1.92,3.09-5.86,6.29-10.47,6.12-3.75-.13-6.45-2.43-8-3.79-1.42-1.21-1.48-17.52-1.6-19.23-.26-3.72-.06-8.2.22-25.67.09-6.24.4-27,.42-49.62,0-9.88,0-8.58,0-10.27.29-11.19-.12-22.39.22-33.58.1-3.49.22-6.07-.31-6.17-.92-.17-3.21,7.32-4.4,13.23A50.39,50.39,0,0,0,741,97.79a86,86,0,0,0,.38,9.81c.27,2.37.56,3.78.12,5.9a8.83,8.83,0,0,1-2.64,5.26c-2.88,2.44-6.93,1.51-7.92,1.28a11.94,11.94,0,0,1-7.27-5.56c-.8-1.49-1-3.23-1.28-6.63a73,73,0,0,1-.29-9.3,87.64,87.64,0,0,1,1.14-11.24c1.27-7.42,2.5-14.78,7.06-22.88a46.24,46.24,0,0,1,15.19-16.9,36,36,0,0,1,14.33-5.78c1-.16,2-.26,2.86-.33-.22,0-.38,0-.31-.09,2-.11,5.77-.51,7.75-.61h1.54c2.22-.25,5.09.43,8.86,1a35.9,35.9,0,0,1,14.33,5.78A46.24,46.24,0,0,1,810,64.43c4.57,8.1,5.79,15.46,7.06,22.88a85.81,85.81,0,0,1,1.14,11.24A73,73,0,0,1,817.92,107.85Z"/><path class="cls-2" d="M752,18.36a18.37,18.37,0,1,1,18.37,18.36A18.36,18.36,0,0,1,752,18.36Z"/><path class="cls-2" d="M921.06,107.85c-.32,3.4-.48,5.14-1.28,6.63a11.94,11.94,0,0,1-7.27,5.56c-1,.23-5,1.16-7.92-1.28A8.89,8.89,0,0,1,902,113.5c-.44-2.12-.14-3.53.13-5.9a88.92,88.92,0,0,0,.38-9.81,50.34,50.34,0,0,0-1.29-10.26c-1.19-5.91-3.47-13.4-4.39-13.23-.53.1-.42,2.68-.31,6.17.34,11.19-.08,22.39.21,33.58,0,1.69,0,.39,0,10.27,0,22.61.33,43.38.43,49.62.27,17.47.47,21.95.21,25.67-.12,1.71-.18,18-1.6,19.23-1.59,1.36-4.29,3.66-8,3.79-4.62.17-8.56-3-10.47-6.12-1.61-2.59-1.67-6.54-1.72-14.33,0-4.26.15-5.79.22-9.84.09-5.74-.17-8.45-.43-14.76-.34-8.33,0-12.61-.43-26.74-.09-3.3-.27-8.16-.64-14.12l-1.88-.06v.06c-.36,6-.53,10.82-.64,14.12-.43,13.43.06,14.69-.43,26.74-.25,6.31-.52,9-.42,14.76.06,4,.24,5.58.21,9.84,0,7.79-.11,11.74-1.71,14.33-1.92,3.09-5.86,6.29-10.47,6.12-3.75-.13-6.45-2.43-8-3.79-1.42-1.21-1.48-17.52-1.6-19.23-.26-3.72-.06-8.2.22-25.67.09-6.24.4-27,.42-49.62,0-9.88,0-8.58,0-10.27.29-11.19-.12-22.39.22-33.58.1-3.49.22-6.07-.31-6.17-.92-.17-3.21,7.32-4.4,13.23a50.39,50.39,0,0,0-1.28,10.26,86,86,0,0,0,.38,9.81c.27,2.37.56,3.78.12,5.9a8.83,8.83,0,0,1-2.64,5.26c-2.88,2.44-6.93,1.51-7.92,1.28a11.94,11.94,0,0,1-7.27-5.56c-.8-1.49-1-3.23-1.28-6.63a73,73,0,0,1-.29-9.3,87.64,87.64,0,0,1,1.14-11.24c1.27-7.42,2.5-14.78,7.06-22.88a46.24,46.24,0,0,1,15.19-16.9,36,36,0,0,1,14.33-5.78c1-.16,2-.26,2.86-.33-.22,0-.38,0-.31-.09,2-.11,5.77-.51,7.75-.61h1.54c2.22-.25,5.09.43,8.86,1A35.9,35.9,0,0,1,898,47.53a46.24,46.24,0,0,1,15.19,16.9c4.57,8.1,5.79,15.46,7.06,22.88a85.81,85.81,0,0,1,1.14,11.24A73,73,0,0,1,921.06,107.85Z"/><path class="cls-2" d="M855.18,18.36a18.37,18.37,0,1,1,18.37,18.36A18.36,18.36,0,0,1,855.18,18.36Z"/><path class="cls-2" d="M1024.21,107.85c-.32,3.4-.48,5.14-1.28,6.63a11.94,11.94,0,0,1-7.27,5.56c-1,.23-5,1.16-7.92-1.28a8.89,8.89,0,0,1-2.64-5.26c-.44-2.12-.14-3.53.13-5.9a88.92,88.92,0,0,0,.38-9.81,50.34,50.34,0,0,0-1.29-10.26c-1.19-5.91-3.47-13.4-4.39-13.23-.53.1-.42,2.68-.31,6.17.34,11.19-.08,22.39.21,33.58,0,1.69,0,.39,0,10.27,0,22.61.33,43.38.43,49.62.27,17.47.47,21.95.21,25.67-.12,1.71-.18,18-1.6,19.23-1.59,1.36-4.29,3.66-8,3.79-4.62.17-8.56-3-10.47-6.12-1.61-2.59-1.67-6.54-1.72-14.33,0-4.26.15-5.79.22-9.84.09-5.74-.17-8.45-.43-14.76-.34-8.33,0-12.61-.43-26.74-.09-3.3-.27-8.16-.64-14.12l-1.88-.06v.06c-.36,6-.53,10.82-.64,14.12-.43,13.43.06,14.69-.43,26.74-.25,6.31-.52,9-.42,14.76.06,4,.24,5.58.21,9.84-.05,7.79-.11,11.74-1.71,14.33-1.92,3.09-5.86,6.29-10.47,6.12-3.75-.13-6.45-2.43-8-3.79-1.42-1.21-1.48-17.52-1.6-19.23-.26-3.72-.06-8.2.22-25.67.09-6.24.4-27,.42-49.62,0-9.88,0-8.58,0-10.27.29-11.19-.12-22.39.22-33.58.1-3.49.22-6.07-.31-6.17-.92-.17-3.21,7.32-4.4,13.23a50.39,50.39,0,0,0-1.28,10.26,86,86,0,0,0,.38,9.81c.27,2.37.56,3.78.12,5.9a8.83,8.83,0,0,1-2.64,5.26c-2.88,2.44-6.93,1.51-7.92,1.28a11.94,11.94,0,0,1-7.27-5.56c-.8-1.49-1-3.23-1.28-6.63a73,73,0,0,1-.29-9.3,87.64,87.64,0,0,1,1.14-11.24c1.27-7.42,2.5-14.78,7.06-22.88a46.24,46.24,0,0,1,15.19-16.9,36,36,0,0,1,14.33-5.78c1-.16,1.95-.26,2.86-.33-.22,0-.38,0-.31-.09,2-.11,5.77-.51,7.75-.61h1.54c2.22-.25,5.09.43,8.86,1a35.9,35.9,0,0,1,14.33,5.78,46.24,46.24,0,0,1,15.19,16.9c4.57,8.1,5.79,15.46,7.06,22.88a85.81,85.81,0,0,1,1.14,11.24A73,73,0,0,1,1024.21,107.85Z"/><path class="cls-2" d="M958.33,18.36A18.37,18.37,0,1,1,976.7,36.72,18.36,18.36,0,0,1,958.33,18.36Z"/></g></g></svg>