<?xml version="1.0" encoding="utf-8"?>
<!-- Generator: Adobe Illustrator 26.2.1, SVG Export Plug-In . SVG Version: 6.00 Build 0)  -->
<svg version="1.1" xmlns="http://www.w3.org/2000/svg" xmlns:xlink="http://www.w3.org/1999/xlink" x="0px" y="0px"
	 viewBox="0 0 336 294" style="enable-background:new 0 0 336 294;" xml:space="preserve">
<style type="text/css">
	.st0{fill:#7BC5B4;}
	.st1{fill:#0F2025;stroke:#164F4B;stroke-miterlimit:10;}
	.st2{fill:#238D7F;}
	.st3{fill:#BB6E5A;}
	.st4{fill:#8C5344;}
	.st5{fill:#164F4B;}
	.st6{fill:#1F8D7F;}
	.st7{fill:#70C2B4;}
	.st8{fill:url(#SVGID_1_);}
	.st9{fill:url(#SVGID_00000106122536489800428210000008237741940723658646_);}
	.st10{fill:#DC9F10;}
	.st11{fill:#FCC120;}
	.st12{fill:#F1F2F1;}
	.st13{fill:#0F2025;}
	.st14{fill:#E2413E;}
	.st15{fill:#AF3230;}
	.st16{fill:#CAE8E1;}
	.st17{fill:none;stroke:#164F4B;stroke-width:7;stroke-miterlimit:10;}
	.st18{fill:none;stroke:#164F4B;stroke-width:8;stroke-miterlimit:10;}
	.st19{fill:#FFFFFF;}
	.st20{opacity:0.81;fill:#7BC5B4;}
	.st21{fill:#95D1C3;}
	.st22{fill:none;stroke:#BB6E5A;stroke-width:5;stroke-linecap:round;stroke-miterlimit:10;}
	.st23{fill:#1A5C58;}
	.st24{fill:none;stroke:#70C2B4;stroke-width:3;stroke-linecap:round;stroke-miterlimit:10;}
	.st25{fill:none;stroke:#0F2025;stroke-width:3;stroke-linecap:round;stroke-linejoin:round;stroke-miterlimit:10;}
	.st26{fill:none;stroke:#BB6E5A;stroke-width:3;stroke-linecap:round;stroke-miterlimit:10;}
	.st27{fill:#676766;}
	.st28{fill:#FAC123;}
	.st29{fill:#2A8E7F;}
	.st30{fill:none;stroke:#FFFFFF;stroke-miterlimit:10;}
	.st31{fill:none;stroke:#F1F2F1;stroke-width:3;stroke-linecap:round;stroke-linejoin:round;}
	.st32{fill:none;stroke:#164F4B;stroke-width:2;stroke-linecap:round;stroke-miterlimit:10;}
	.st33{display:none;}
	.st34{display:inline;fill:#CAE8E1;}
	.st35{display:inline;fill:none;stroke:#164F4B;stroke-width:7;stroke-miterlimit:10;}
	.st36{display:inline;fill:#0F2025;}
	.st37{display:inline;fill:none;stroke:#164F4B;stroke-width:8;stroke-miterlimit:10;}
	.st38{display:inline;fill:#FFFFFF;}
	.st39{display:inline;fill:#44607F;}
	.st40{display:inline;fill:#FAF2DB;}
	.st41{fill:none;stroke:#184F4B;stroke-width:4;stroke-linecap:round;stroke-linejoin:round;}
	.st42{fill:#184F4B;}
</style>
<g id="Capa_1">
</g>
<g id="Capa_5">
</g>
<g id="Calendario_Baño">
	<g>
		<path class="st28" d="M155.3,18c61.9,7,110.4,59.1,111.3,123c1,69.3-54.5,126.3-123.8,127.2c-69.1,0.9-125.9-54.1-127.2-123.1
			l126.9-1.7L155.3,18z"/>
		<path class="st29" d="M139.4,17.2c1.5,0,3.1,0,4.6,0c3.8,0.1,7.6,0.3,11.3,0.8l-12.8,125.4l-126.9,1.7c0-0.2,0-0.5,0-0.7
			c-0.1-9.3,0.7-18.3,2.6-27.1C29.8,60.9,79.4,18,139.4,17.2z"/>
	</g>
	<g>
		<g>
			<line class="st30" x1="220.9" y1="102.8" x2="316.5" y2="51.6"/>
			<g>
				<path class="st19" d="M222.8,106c-1.8,1-4.1,0.3-5.1-1.5s-0.3-4.1,1.5-5.1c1.8-1,4.1-0.3,5.1,1.5
					C225.3,102.8,224.6,105.1,222.8,106z"/>
			</g>
		</g>
	</g>
</g>
<g id="Capa_4" class="st33">
</g>
<g id="Capa_3">
</g>
</svg>
